{
  "title": "The.Legend.of.Tarzan.2016.HDTS.XviD-VAiN",
  "uid": 15257903,
  "size": 1589756597,
  "categoryP": "video",
  "categoryS": "movies",
  "magnet": "?xt=urn:btih:3aa467d01eaf8fbbcd35828f3c07aa91ec028217&amp;dn=The.Legend.of.Tarzan.2016.HDTS.XviD-VAiN&amp;tr=udp%3A%2F%2Ftracker.leechers-paradise.org%3A6969&amp;tr=udp%3A%2F%2Fzer0day.ch%3A1337&amp;tr=udp%3A%2F%2Fopen.demonii.com%3A1337&amp;tr=udp%3A%2F%2Ftracker.coppersurfer.tk%3A6969&amp;tr=udp%3A%2F%2Fexodus.desync.com%3A6969",
  "seeders": 352,
  "leechers": 82,
  "uploader": "xxxlavalxxx",
  "files": 4,
  "time": 1468148281,
  "description": "http://extraimago.com/image/aoZ3\r\n \nhttp://www.imdb.com/title/tt0918940/\r\n\r\n\r\nTarzan, having acclimated to life in London, is called back to his former home in the jungle to investigate the activities at a mining encampment.\r\n\r\nDirector: David Yates\r\nWriters: Adam Cozad (screenplay), Craig Brewer (screenplay)\r\nStars: Alexander Skarsgård, Rory J. Saper, Christian Stevens \r\nGenres: Action | Adventure\r\nCountry: USA\r\nLanguage: English\r\n\r\n\r\nBasic Information\r\nFormat                      : AVI\r\nFormat/Info                 : Audio Video Interleave\r\nFile size                   : 1.47 GiB\r\nDuration                    : 1h 45mn\r\nOverall bit rate            : 1 990 Kbps\r\nWriting application         : VirtualDubMod 1.5.10.2 (build 2540/release)\r\nWriting library             : VirtualDubMod build 2540/release\r\n\r\nVideo\r\nID                          : 0\r\nFormat                      : MPEG-4 Visual\r\nFormat profile              : Advanced   \r\nFormat settings, BVOP       : 2\r\nFormat settings, QPel       : No\r\nFormat settings, GMC        : No warppoints\r\nFormat settings, Matrix     : Default (H.263)\r\nMuxing mode                 : Packed bitstream\r\nCodec ID                    : XVID\r\nCodec ID/Hint               : XviD\r\nDuration                    : 1h 45mn\r\nBit rate                    : 1 786 Kbps\r\nWidth                       : 720 pixels\r\nHeight                      : 304 pixels\r\nDisplay aspect ratio        : 2.35:1\r\nFrame rate                  : 30.000 fps\r\nColor space                 : YUV\r\nChroma subsampling          : 4:2:0\r\nBit depth                   : 8 bits\r\nScan type                   : Progressive\r\nCompression mode            : Lossy\r\nBits/(Pixel*Frame)          : 0.272\r\nStream size                 : 1.32 GiB (90%)\r\nWriting library             : XviD 64\r\n\r\nAudio\r\nID                          : 1\r\nFormat                      : MPEG Audio\r\nFormat version              : Version 1\r\nFormat profile              : Layer 3\r\nMode                        : Joint stereo\r\nMode extension              : MS Stereo\r\nCodec ID                    : 55\r\nCodec ID/Hint               : MP3\r\nDuration                    : 1h 45mn\r\nBit rate mode               : Constant\r\nBit rate                    : 192 Kbps\r\nChannel(s)                  : 2 channels\r\nSampling rate               : 48.0 KHz\r\nCompression mode            : Lossy\r\nStream size                 : 145 MiB (10%)\r\nAlignment                   : Aligned on interleaves\r\nInterleave, duration        : 33 ms (1.00 video frame)\r\nInterleave, preload duratio : 504 ms\r\n\r\n\r\nE N C O D E R S . N O T E S . . .       \r\n\r\nSOURCE......: ViDEO...X264-CPG\r\n............: AUDiO...X264-CPG\r\nSAMPLE......: Yippers \r\nADDED NOTE..: Love Me.... Love You...\r\nTook sum ol' poo-shine and polished this turd.... \r\n\r\n \nhttp://extraimago.com/image/atXc \nhttp://extraimago.com/image/atX1 \nhttp://extraimago.com/image/atXE \nhttp://extraimago.com/image/atXO \nhttp://extraimago.com/image/atXS \nhttp://extraimago.com/image/atXq",
  "parsed": {
    "xt": "urn:btih:3aa467d01eaf8fbbcd35828f3c07aa91ec028217",
    "dn": "The.Legend.of.Tarzan.2016.HDTS.XviD-VAiN",
    "tr": [
      "udp://exodus.desync.com:6969",
      "udp://open.demonii.com:1337",
      "udp://tracker.coppersurfer.tk:6969",
      "udp://tracker.leechers-paradise.org:6969",
      "udp://zer0day.ch:1337"
    ],
    "infoHash": "3aa467d01eaf8fbbcd35828f3c07aa91ec028217",
    "infoHashBuffer": {
      "type": "Buffer",
      "data": [
        58,
        164,
        103,
        208,
        30,
        175,
        143,
        187,
        205,
        53,
        130,
        143,
        60,
        7,
        170,
        145,
        236,
        2,
        130,
        23
      ]
    },
    "name": "The.Legend.of.Tarzan.2016.HDTS.XviD-VAiN",
    "announce": [
      "udp://exodus.desync.com:6969",
      "udp://open.demonii.com:1337",
      "udp://tracker.coppersurfer.tk:6969",
      "udp://tracker.leechers-paradise.org:6969",
      "udp://zer0day.ch:1337"
    ],
    "urlList": []
  },
  "previous": 100,
  "peers": 350,
  "last_updated": "2016-12-26T21:42:49.685Z"
}